<svg width="24" height="24" viewBox="0 0 24 24" fill="none" xmlns="http://www.w3.org/2000/svg">
<g clip-path="url(#clip0_2073_781)">
<path d="M21.75 13.5V19.5C21.75 19.6989 21.671 19.8897 21.5303 20.0303C21.3897 20.171 21.1989 20.25 21 20.25H4.5C4.30109 20.25 4.11032 20.171 3.96967 20.0303C3.82902 19.8897 3.75 19.6989 3.75 19.5V13.5C3.75 13.3011 3.82902 13.1103 3.96967 12.9697C4.11032 12.829 4.30109 12.75 4.5 12.75C4.69891 12.75 4.88968 12.829 5.03033 12.9697C5.17098 13.1103 5.25 13.3011 5.25 13.5V18.75H20.25V13.5C20.25 13.3011 20.329 13.1103 20.4697 12.9697C20.6103 12.829 20.8011 12.75 21 12.75C21.1989 12.75 21.3897 12.829 21.5303 12.9697C21.671 13.1103 21.75 13.3011 21.75 13.5ZM12.2194 14.0306C12.289 14.1004 12.3717 14.1557 12.4628 14.1934C12.5538 14.2312 12.6514 14.2506 12.75 14.2506C12.8486 14.2506 12.9462 14.2312 13.0372 14.1934C13.1283 14.1557 13.211 14.1004 13.2806 14.0306L17.0306 10.2806C17.1356 10.1757 17.2072 10.042 17.2361 9.89648C17.2651 9.75092 17.2503 9.60002 17.1935 9.46291C17.1367 9.32579 17.0404 9.20861 16.917 9.12621C16.7935 9.04381 16.6484 8.99988 16.5 9H13.5V3C13.5 2.80109 13.421 2.61032 13.2803 2.46967C13.1397 2.32902 12.9489 2.25 12.75 2.25C12.5511 2.25 12.3603 2.32902 12.2197 2.46967C12.079 2.61032 12 2.80109 12 3V9H9C8.85158 8.99988 8.70646 9.04381 8.58301 9.12621C8.45957 9.20861 8.36335 9.32579 8.30653 9.46291C8.24972 9.60002 8.23487 9.75092 8.26385 9.89648C8.29284 10.042 8.36437 10.1757 8.46937 10.2806L12.2194 14.0306Z" fill="#B3B3B3"/>
</g>
<defs>
<clipPath id="clip0_2073_781">
<rect width="24" height="24" fill="white" transform="translate(0.75)"/>
</clipPath>
</defs>
</svg>
