<svg width="25" height="24" viewBox="0 0 25 24" fill="none" xmlns="http://www.w3.org/2000/svg">
<g clip-path="url(#clip0_2022_1270)">
<path d="M12.3333 21C17.3038 21 21.3333 16.9706 21.3333 12C21.3333 7.02944 17.3038 3 12.3333 3C7.36269 3 3.33325 7.02944 3.33325 12C3.33325 16.9706 7.36269 21 12.3333 21Z" stroke="#B3B3B3" stroke-width="2" stroke-linecap="round" stroke-linejoin="round"/>
<path d="M12.3333 15C14.4043 15 16.0833 13.3211 16.0833 11.25C16.0833 9.17893 14.4043 7.5 12.3333 7.5C10.2622 7.5 8.58325 9.17893 8.58325 11.25C8.58325 13.3211 10.2622 15 12.3333 15Z" stroke="#B3B3B3" stroke-width="2" stroke-linecap="round" stroke-linejoin="round"/>
<path d="M6.31445 18.6909C6.87874 17.5794 7.73979 16.6459 8.80215 15.9938C9.86451 15.3418 11.0867 14.9966 12.3332 14.9966C13.5797 14.9966 14.8019 15.3418 15.8643 15.9938C16.9266 16.6459 17.7877 17.5794 18.352 18.6909" stroke="#B3B3B3" stroke-width="2" stroke-linecap="round" stroke-linejoin="round"/>
</g>
<defs>
<clipPath id="clip0_2022_1270">
<rect width="24" height="24" fill="white" transform="translate(0.333252)"/>
</clipPath>
</defs>
</svg>
