<svg width="25" height="24" viewBox="0 0 25 24" fill="none" xmlns="http://www.w3.org/2000/svg">
<g clip-path="url(#clip0_2022_1267)">
<path d="M12.6667 15.75C14.7378 15.75 16.4167 14.0711 16.4167 12C16.4167 9.92893 14.7378 8.25 12.6667 8.25C10.5957 8.25 8.91675 9.92893 8.91675 12C8.91675 14.0711 10.5957 15.75 12.6667 15.75Z" stroke="#B3B3B3" stroke-width="2" stroke-linecap="round" stroke-linejoin="round"/>
<path d="M12.859 19.3228C12.7334 19.3228 12.6068 19.3228 12.484 19.3228L9.47933 21C8.30964 20.6065 7.22471 19.9959 6.28152 19.2L6.27027 15.825C6.20371 15.72 6.1409 15.6141 6.08277 15.5053L3.09496 13.8038C2.85962 12.6134 2.85962 11.3885 3.09496 10.1981L6.07996 8.50125C6.1409 8.39344 6.20371 8.28656 6.26746 8.18156L6.28246 4.80656C7.2248 4.00842 8.30944 3.39548 9.47933 3L12.4793 4.67719C12.605 4.67719 12.7315 4.67719 12.8543 4.67719L15.8543 3C17.024 3.39346 18.109 4.00414 19.0521 4.8L19.0634 8.175C19.13 8.28 19.1928 8.38594 19.2509 8.49469L22.2368 10.1953C22.4722 11.3857 22.4722 12.6106 22.2368 13.8009L19.2518 15.4978C19.1909 15.6056 19.1281 15.7125 19.0643 15.8175L19.0493 19.1925C18.1076 19.9908 17.0236 20.604 15.8543 21L12.859 19.3228Z" stroke="#B3B3B3" stroke-width="2" stroke-linecap="round" stroke-linejoin="round"/>
</g>
<defs>
<clipPath id="clip0_2022_1267">
<rect width="24" height="24" fill="white" transform="translate(0.666748)"/>
</clipPath>
</defs>
</svg>
