<svg width="40" height="40" viewBox="0 0 40 40" fill="none" xmlns="http://www.w3.org/2000/svg">
<rect width="40" height="40" rx="20" fill="white" fill-opacity="0.1"/>
<g clip-path="url(#clip0_1_521)">
<path d="M23.5 16.75H25.75C25.9489 16.75 26.1397 16.829 26.2803 16.9697C26.421 17.1103 26.5 17.3011 26.5 17.5V26.5C26.5 26.6989 26.421 26.8897 26.2803 27.0303C26.1397 27.171 25.9489 27.25 25.75 27.25H12.25C12.0511 27.25 11.8603 27.171 11.7197 27.0303C11.579 26.8897 11.5 26.6989 11.5 26.5V17.5C11.5 17.3011 11.579 17.1103 11.7197 16.9697C11.8603 16.829 12.0511 16.75 12.25 16.75H14.5" stroke="white" stroke-width="1.5" stroke-linecap="round" stroke-linejoin="round"/>
<path d="M15.25 13L19 9.25L22.75 13" stroke="white" stroke-width="1.5" stroke-linecap="round" stroke-linejoin="round"/>
<path d="M19 9.25V19.75" stroke="white" stroke-width="1.5" stroke-linecap="round" stroke-linejoin="round"/>
</g>
<defs>
<clipPath id="clip0_1_521">
<rect width="24" height="24" fill="white" transform="translate(7 7)"/>
</clipPath>
</defs>
</svg>
